<?xml version="1.0" standalone="yes"?>
<svg xmlns="http://www.w3.org/2000/svg" width="907" height="528">
<path style="fill:#020101; stroke:none;" d="M0 0L0 528L907 528L907 0L0 0z"/>
<path style="fill:#616161; stroke:none;" d="M271 119L271 120L282 117L271 119z"/>
<path style="fill:#f5ca23; stroke:none;" d="M282.667 116.333L283.333 116.667L282.667 116.333z"/>
<path style="fill:#f7f7f7; stroke:none;" d="M264 141C256.286 141 248.943 140.276 242.093 144.504C232.306 150.545 231.406 164.304 241.185 170.906C247.439 175.128 256.776 176.264 264 174.211C268.022 173.069 272.696 168.776 277 170.07C295.162 175.533 308.382 196.589 326 204L337.748 178.209L328.039 169.519L299 149C302.116 145.735 305.388 142.31 307.005 138C310.299 129.219 302.673 121.256 295 118.444C278.293 112.32 260.548 122.403 264 141z"/>
<path style="fill:#f5ca23; stroke:none;" d="M286 116L286 117L289 117L286 116z"/>
<path style="fill:#616161; stroke:none;" d="M289 116L289 117L293 117L289 116M618 116L618 117L624 117L618 116z"/>
<path style="fill:#f5ca23; stroke:none;" d="M277 117L278 118L277 117M292.667 117.333L293.333 117.667L292.667 117.333z"/>
<path style="fill:#616161; stroke:none;" d="M294 117L294 118L300 120L300 119L294 117M608 119L608 120L616 118L608 119z"/>
<path style="fill:#f5ca23; stroke:none;" d="M616 117L616 118L620 118L616 117z"/>
<path style="fill:#f7f7f7; stroke:none;" d="M607 148L607 150C597.735 154.614 589.314 161.844 580.911 167.89C577.723 170.182 572.029 173.111 570.083 176.598C567.617 181.015 576.968 192.548 578.772 196.995C579.596 199.027 580.355 202.314 583.144 202.169C587.527 201.941 592.58 196.428 596 194.001C606.164 186.786 616.779 176.512 628 171.173C632.443 169.059 636.883 173.513 641 174.895C646.304 176.676 653.702 176.731 659 174.891C671.072 170.698 677.289 155.614 665.907 146.789C658.728 141.224 650.388 141.938 642 141C648.054 120.519 620.414 111.517 606.04 121.799C596.255 128.8 596.261 142.004 607 148z"/>
<path style="fill:#f5ca23; stroke:none;" d="M622 117L622 118L626 118L622 117z"/>
<path style="fill:#616161; stroke:none;" d="M626 117L626 118L634 120L626 117z"/>
<path style="fill:#f5ca23; stroke:none;" d="M275 118L276 119L275 118M295 118L296 119L295 118M613 118L614 119L613 118M628 118L629 119L628 118M272 119L273 120L272 119M297 119L298 120L297 119z"/>
<path style="fill:#616161; stroke:none;" d="M269 120L266 124L269 120z"/>
<path style="fill:#f5ca23; stroke:none;" d="M270 120L271 121L270 120z"/>
<path style="fill:#616161; stroke:none;" d="M300 120L305 126L306 126L300 120M600 127L601 127L607 120L600 127z"/>
<path style="fill:#f5ca23; stroke:none;" d="M607 120L608 121L607 120z"/>
<path style="fill:#616161; stroke:none;" d="M634 120L634 121C642.118 126.189 643 131.956 643 141L644 141C645.142 131.916 643.821 123.348 634 120z"/>
<path style="fill:#f5ca23; stroke:none;" d="M269 121L270 122L269 121M606 121L607 122L606 121M635 121L636 122L635 121M268 122L269 123L268 122M636 122L637 123L636 122M267 123L268 124L267 123M303 123L304 124L303 123z"/>
<path style="fill:#616161; stroke:none;" d="M265 124L259 140L259 141L263 141L265 124z"/>
<path style="fill:#f5ca23; stroke:none;" d="M602 124L603 125L602 124M639 124L640 125L639 124z"/>
<path style="fill:#616161; stroke:none;" d="M306 126L307 130L308 130L306 126z"/>
<path style="fill:#f5ca23; stroke:none;" d="M601 126L602 127L601 126M640 126L641 127L640 126M264 127L265 128L264 127z"/>
<path style="fill:#616161; stroke:none;" d="M599 127L598 131L599 131L599 127z"/>
<path style="fill:#f5ca23; stroke:none;" d="M641.333 127.667L641.667 128.333L641.333 127.667M306 128L307 129L306 128M263 129L264 130L263 129M642 129L643 130L642 129M307 130L308 131L307 130z"/>
<path style="fill:#616161; stroke:none;" d="M308 131L308 137L309 137L308 131z"/>
<path style="fill:#f5ca23; stroke:none;" d="M598.333 131.667L598.667 132.333L598.333 131.667z"/>
<path style="fill:#616161; stroke:none;" d="M438 132L438 133L469 133L438 132M597 132L597 138L598 138L597 132M430 133L430 134L437 134L430 133z"/>
<path style="fill:#f5ca23; stroke:none;" d="M346 184C364.298 188.356 387.224 184.8 406 184.454C437.296 183.879 468.689 185.865 500 184.093C519.63 182.983 541.7 188.588 561 184C551.234 164.868 529.412 150.666 510 143.09C457.91 122.759 376.219 129.787 346 184z"/>
<path style="fill:#616161; stroke:none;" d="M470 133L470 134L476 134L470 133M414 136L414 137L427 135L414 136M480 134L480 135L492 137L480 134z"/>
<path style="fill:#f5ca23; stroke:none;" d="M307 137L308 138L307 137z"/>
<path style="fill:#616161; stroke:none;" d="M410 137L410 138L413 138L410 137M493 137L493 138L496 138L493 137z"/>
<path style="fill:#f5ca23; stroke:none;" d="M598 137L600 140L598 137M263 138L263 141L264 141L263 138z"/>
<path style="fill:#616161; stroke:none;" d="M307 138L301 146L301 147C304.626 145.227 307.992 142.315 307 138M404 139L404 140L410 139L404 139M497 138L497 139L503 140L503 139L497 138M249 140L249 141L256 140L249 140z"/>
<path style="fill:#f5ca23; stroke:none;" d="M306 139L307 140L306 139z"/>
<path style="fill:#616161; stroke:none;" d="M598 139L605 148L604 150L604 151C607.257 147.686 600.549 141.61 598 139z"/>
<path style="fill:#f5ca23; stroke:none;" d="M254 140L254 141L259 141L254 140z"/>
<path style="fill:#616161; stroke:none;" d="M401 140L401 141L404 141L401 140M503.667 140.333L504.333 140.667L503.667 140.333z"/>
<path style="fill:#f5ca23; stroke:none;" d="M642 140L643 141L642 140z"/>
<path style="fill:#616161; stroke:none;" d="M242 143L242 144L248 142L242 143z"/>
<path style="fill:#f5ca23; stroke:none;" d="M305 141L306 142L305 141z"/>
<path style="fill:#616161; stroke:none;" d="M398.667 141.333L399.333 141.667L398.667 141.333M506 141L506 142L513 144L513 143L506 141z"/>
<path style="fill:#f5ca23; stroke:none;" d="M643 141L643 142L646 142L643 141M652 141L652 142L655 142L652 141z"/>
<path style="fill:#616161; stroke:none;" d="M655 141L655 142L667 147L655 141z"/>
<path style="fill:#f5ca23; stroke:none;" d="M246 142L247 143L246 142M304 142L305 143L304 142z"/>
<path style="fill:#616161; stroke:none;" d="M394 143L394 144L398 143L394 143z"/>
<path style="fill:#f5ca23; stroke:none;" d="M600 142L601 143L600 142M656.667 142.333L657.333 142.667L656.667 142.333M601 143L602 144L601 143z"/>
<path style="fill:#616161; stroke:none;" d="M240 144L237 148L240 144z"/>
<path style="fill:#f5ca23; stroke:none;" d="M241 144L242 145L241 144M303 144L304 145L303 144z"/>
<path style="fill:#616161; stroke:none;" d="M391.667 144.333L392.333 144.667L391.667 144.333M514.667 144.333L515.333 144.667L514.667 144.333z"/>
<path style="fill:#f5ca23; stroke:none;" d="M662 144L663 145L662 144M240 145L241 146L240 145z"/>
<path style="fill:#616161; stroke:none;" d="M387 146L387 147L391 146L387 146M516 145L516 146L520 147L520 146L516 145z"/>
<path style="fill:#f5ca23; stroke:none;" d="M603 145L604 146L603 145M664 145L665 146L664 145M665 146L666 147L665 146M238 147L239 148L238 147z"/>
<path style="fill:#616161; stroke:none;" d="M300 147L313 158L300 147M385.667 147.333L386.333 147.667L385.667 147.333M520.667 147.333L521.333 147.667L520.667 147.333z"/>
<path style="fill:#f5ca23; stroke:none;" d="M605 147L606 148L605 147z"/>
<path style="fill:#616161; stroke:none;" d="M667 147L669 149L669 147L667 147M235 148C232.619 155.565 231.679 160.921 236 168L237 168C233.867 160.311 233.612 155.642 237 148L235 148z"/>
<path style="fill:#f5ca23; stroke:none;" d="M299 148L300 149L299 148z"/>
<path style="fill:#616161; stroke:none;" d="M380 150L380 151L385 149L380 150M522 148L522 149L527 151L527 150L522 148z"/>
<path style="fill:#f5ca23; stroke:none;" d="M606.333 148.667L606.667 149.333L606.333 148.667M236 149L237 150L236 149M300 149L301 150L300 149z"/>
<path style="fill:#616161; stroke:none;" d="M669 149L673 160L674 160C673.43 155.607 672.94 151.484 669 149z"/>
<path style="fill:#f5ca23; stroke:none;" d="M301 150L302 151L301 150M669 150L670 151L669 150M235 151L236 152L235 151M303 151L304 152L303 151z"/>
<path style="fill:#616161; stroke:none;" d="M378.667 151.333L379.333 151.667L378.667 151.333M527.667 151.333L528.333 151.667L527.667 151.333M600 154L604 152L600 154z"/>
<path style="fill:#f5ca23; stroke:none;" d="M670 151L671 152L670 151M234.333 152.667L234.667 153.333L234.333 152.667M304 152L305 153L304 152z"/>
<path style="fill:#616161; stroke:none;" d="M375 154L378 152L375 154M529 152L533 155L529 152z"/>
<path style="fill:#f5ca23; stroke:none;" d="M602 152L603 153L602 152M305 153L306 154L305 153M601 153L602 154L601 153M307 154L308 155L307 154z"/>
<path style="fill:#616161; stroke:none;" d="M374 154L375 155L374 154M594 158L600 155L594 158z"/>
<path style="fill:#f5ca23; stroke:none;" d="M308 155L309 156L308 155z"/>
<path style="fill:#616161; stroke:none;" d="M372.667 155.333L373.333 155.667L372.667 155.333M533 155L536 157L533 155z"/>
<path style="fill:#f5ca23; stroke:none;" d="M598 155L599 156L598 155M309 156L310 157L309 156z"/>
<path style="fill:#616161; stroke:none;" d="M371 156L372 157L371 156z"/>
<path style="fill:#f5ca23; stroke:none;" d="M597 156L598 157L597 156M311 157L312 158L311 157z"/>
<path style="fill:#616161; stroke:none;" d="M368 159L371 157L368 159M390 157L390 158L395 159L390 157M536 157L539 159L536 157z"/>
<path style="fill:#f5ca23; stroke:none;" d="M672 157L672 161L673 161L672 157z"/>
<path style="fill:#616161; stroke:none;" d="M313 158L313 159L317 161L313 158M388 158L377 168L388 158z"/>
<path style="fill:#020101; stroke:none;" d="M372 178C379.944 176.774 390.394 165.404 395 159C385.861 156.594 373.694 169.575 372 178z"/>
<path style="fill:#616161; stroke:none;" d="M590 161L594 159L590 161z"/>
<path style="fill:#f5ca23; stroke:none;" d="M314 159L315 160L314 159z"/>
<path style="fill:#616161; stroke:none;" d="M366 159L366 161L368 161L368 159L366 159M539 159L540 160L539 159M394 160L391 164L394 160M534 183C530.01 176.117 526.528 168.513 519 165C524.455 155.893 536.851 176.726 536 183C542.448 177.335 529.361 163.554 524.004 161.219C516.733 158.05 519.335 165.943 522.044 169C523.803 170.985 525.657 172.839 527.211 175C529.439 178.098 530.626 181.087 534 183M540 160L541 161L540 160z"/>
<path style="fill:#f5ca23; stroke:none;" d="M591 160L592 161L591 160z"/>
<path style="fill:#616161; stroke:none;" d="M317 161L317 162L324 166L317 161M361 165L366 161L361 165z"/>
<path style="fill:#020101; stroke:none;" d="M519 165L536 183C537.679 176.112 532.506 169.67 527.675 165.1C524.555 162.147 520.674 160.022 519 165z"/>
<path style="fill:#616161; stroke:none;" d="M541 161L542 162L541 161M585 165L590 162L585 165M672 161L669 169L670 169L672 161z"/>
<path style="fill:#f5ca23; stroke:none;" d="M234 162L235 163L234 162M318 162L319 163L318 162z"/>
<path style="fill:#616161; stroke:none;" d="M542 162L546 165L542 162z"/>
<path style="fill:#f5ca23; stroke:none;" d="M588 162L589 163L588 162M319 163L320 164L319 163z"/>
<path style="fill:#616161; stroke:none;" d="M394 182L394 181C389.678 172.051 413.099 159.954 403.024 171.669C401.827 173.06 400.763 174.533 399.657 175.995C398.225 177.887 396.764 179.424 395 181C399.023 181.94 411.43 166.909 406.663 164.288C400.738 161.03 386.974 177.373 394 182z"/>
<path style="fill:#f5ca23; stroke:none;" d="M587 163L588 164L587 163M235 164L236 165L235 164z"/>
<path style="fill:#616161; stroke:none;" d="M390 164L391 165L390 164z"/>
<path style="fill:#020101; stroke:none;" d="M392 181C395.613 181.001 409.766 169.04 406.169 165.792C401.177 161.284 392.646 177.663 392 181z"/>
<path style="fill:#f5ca23; stroke:none;" d="M322 165L323 166L322 165z"/>
<path style="fill:#616161; stroke:none;" d="M360 165L361 166L360 165M386 168L390 165L386 168M546 165L547 166L546 165M583 165L580 167L580 168L583 165z"/>
<path style="fill:#f5ca23; stroke:none;" d="M670 165L671 166L670 165M236 166L237 167L236 166z"/>
<path style="fill:#616161; stroke:none;" d="M324 166L324 167L328 169L324 166M359 166L360 167L359 166M547 166L547 168L549 168L547 166z"/>
<path style="fill:#f5ca23; stroke:none;" d="M583 166L584 167L583 166M324 167L325 168L324 167z"/>
<path style="fill:#616161; stroke:none;" d="M358 167L357 169L359 169L358 167M499 168C499.384 170.155 499.904 171.986 500.785 174.005C509.466 193.913 515.641 164.576 499 168z"/>
<path style="fill:#f5ca23; stroke:none;" d="M669 167L670 168L669 167z"/>
<path style="fill:#616161; stroke:none;" d="M237 168L237 170L239 170L237 168z"/>
<path style="fill:#f5ca23; stroke:none;" d="M238 168L239 169L238 168M326 168L327 169L326 168z"/>
<path style="fill:#616161; stroke:none;" d="M385 168L386 169L385 168M413 179L414 179C414.266 173.646 416.993 170.675 422 169L417 179C433.475 170.038 410.217 163.897 413 179z"/>
<path style="fill:#020101; stroke:none;" d="M500 169C501.537 174.236 503.604 181.217 510 180C508.818 174.512 506.747 167.443 500 169z"/>
<path style="fill:#616161; stroke:none;" d="M549 168L549 170L551 170L549 168M579 168L580 169L579 168M272 170L272 171L279 172C277.028 169.215 275.218 169.213 272 170z"/>
<path style="fill:#f5ca23; stroke:none;" d="M277 169L278 170L277 169z"/>
<path style="fill:#616161; stroke:none;" d="M328 169L328 170L332 172L328 169M356 169L357 170L356 169M375 169L375 171L377 169L375 169M384 169L385 170L384 169z"/>
<path style="fill:#020101; stroke:none;" d="M414 179C419.059 177.549 421.316 174.116 422 169C416.626 170.09 413.404 173.378 414 179z"/>
<path style="fill:#616161; stroke:none;" d="M569 176L579 170L569 176z"/>
<path style="fill:#f5ca23; stroke:none;" d="M627 172L632 170L627 172M667 169L665 172L667 169z"/>
<path style="fill:#616161; stroke:none;" d="M668 169L667 171L669 171L668 169M239 170L241 172L239 170z"/>
<path style="fill:#f5ca23; stroke:none;" d="M240 170L241 171L240 170M329 170L330 171L329 170z"/>
<path style="fill:#616161; stroke:none;" d="M355 170L356 171L355 170M382 170L382 172L384 172L384 170L382 170M551 170L551 172L553 172L551 170M629 170L629 171L634 172L629 170z"/>
<path style="fill:#f5ca23; stroke:none;" d="M241 171L242 172L241 171M270 171L271 172L270 171z"/>
<path style="fill:#616161; stroke:none;" d="M271 171L272 172L271 171z"/>
<path style="fill:#f5ca23; stroke:none;" d="M279 171L280 172L279 171M330 171L331 172L330 171z"/>
<path style="fill:#616161; stroke:none;" d="M354 171L351 176L354 171M374 171L375 172L374 171z"/>
<path style="fill:#f5ca23; stroke:none;" d="M576 171L577 172L576 171z"/>
<path style="fill:#616161; stroke:none;" d="M628 171L629 172L628 171M666 171L667 172L666 171M242 172L242 173L248 175L248 174L242 172z"/>
<path style="fill:#f5ca23; stroke:none;" d="M268 172L269 173L268 172z"/>
<path style="fill:#616161; stroke:none;" d="M269.667 172.333L270.333 172.667L269.667 172.333M280 172L284 175L284 174L280 172z"/>
<path style="fill:#f5ca23; stroke:none;" d="M281 172L282 173L281 172M332 172L335 175L332 172z"/>
<path style="fill:#616161; stroke:none;" d="M333 172L334 173L333 172M373 172L374 173L373 172M381 172L382 173L381 172M553 172L560 181L553 172z"/>
<path style="fill:#f5ca23; stroke:none;" d="M574 172L575 173L574 172M625 172L624 174L625 172z"/>
<path style="fill:#616161; stroke:none;" d="M626 172L627 173L626 172M634 172L639 175L639 174L634 172M661 174L661 175L666 173L661 174z"/>
<path style="fill:#f5ca23; stroke:none;" d="M246 173L247 174L246 173z"/>
<path style="fill:#616161; stroke:none;" d="M259 175L259 176L269 174L259 175M334 173L338 176L334 173M372 173L371 178L372 178L372 173M380 173L372 178L372 179C375.88 178.707 380.096 177.475 380 173z"/>
<path style="fill:#f5ca23; stroke:none;" d="M573 173L574 174L573 173z"/>
<path style="fill:#616161; stroke:none;" d="M625 173L626 174L625 173z"/>
<path style="fill:#f5ca23; stroke:none;" d="M248.667 174.333L249.333 174.667L248.667 174.333M263 174L264 175L263 174M572 174L573 175L572 174z"/>
<path style="fill:#616161; stroke:none;" d="M622 176L625 174L622 176z"/>
<path style="fill:#f5ca23; stroke:none;" d="M639 174L640 175L639 174M660 174L661 175L660 174z"/>
<path style="fill:#616161; stroke:none;" d="M249 175L249 176L253 176L249 175z"/>
<path style="fill:#f5ca23; stroke:none;" d="M253 175L253 176L259 176L253 175z"/>
<path style="fill:#616161; stroke:none;" d="M284 175L291 180L291 179L284 175z"/>
<path style="fill:#f5ca23; stroke:none;" d="M285 175L286 176L285 175z"/>
<path style="fill:#616161; stroke:none;" d="M640.667 175.333L641.333 175.667L640.667 175.333z"/>
<path style="fill:#f5ca23; stroke:none;" d="M642 175L643 176L642 175M657 175L658 176L657 175z"/>
<path style="fill:#616161; stroke:none;" d="M658.667 175.333L659.333 175.667L658.667 175.333M338 176L328 202L329 202C330.735 196.262 342.506 179.584 338 176M350 176L351 177L350 176M567 176L571 183L569 176L567 176M616 179L616 180L622 176L616 179M643 176L643 177L656 177L643 176z"/>
<path style="fill:#f5ca23; stroke:none;" d="M288 177L289 178L288 177M338 177L339 178L338 177z"/>
<path style="fill:#616161; stroke:none;" d="M349 177L348 180L349 177z"/>
<path style="fill:#f5ca23; stroke:none;" d="M568.333 177.667L568.667 178.333L568.333 177.667M618 177L619 178L618 177M289 178L290 179L289 178M617 178L618 179L617 178M338 179L339 180L338 179z"/>
<path style="fill:#616161; stroke:none;" d="M291 180L295 183L295 182L291 180z"/>
<path style="fill:#f5ca23; stroke:none;" d="M292 180L293 181L292 180M337 180L338 181L337 180z"/>
<path style="fill:#616161; stroke:none;" d="M347 180L346 183L347 180z"/>
<path style="fill:#f5ca23; stroke:none;" d="M569 180L570 181L569 180M614 180L613 182L614 180z"/>
<path style="fill:#616161; stroke:none;" d="M615 180L614 182L616 182L615 180z"/>
<path style="fill:#f5ca23; stroke:none;" d="M293 181L294 182L293 181z"/>
<path style="fill:#616161; stroke:none;" d="M560 181L561 184C542.286 187.425 520.955 184.257 502 184.019C470.395 183.62 438.579 185.253 407 184.258C387.903 183.657 363.086 189.592 345 183C347.617 187.037 352.606 186 357 186L387 186L517 186L551 186C554.559 186 563.941 186.778 560 181z"/>
<path style="fill:#f5ca23; stroke:none;" d="M570 181L571 182L570 181M336 182L337 183L336 182z"/>
<path style="fill:#616161; stroke:none;" d="M608 185L608 186L614 183L608 185M295 183L299 186L299 185L295 183z"/>
<path style="fill:#f5ca23; stroke:none;" d="M296 183L297 184L296 183M335 183L336 184L335 183M571 183L573 185L571 183M610 183L611 184L610 183z"/>
<path style="fill:#616161; stroke:none;" d="M571 184L577 196L578 196L571 184z"/>
<path style="fill:#f5ca23; stroke:none;" d="M334 185L335 186L334 185z"/>
<path style="fill:#616161; stroke:none;" d="M299 186L312 196L299 186z"/>
<path style="fill:#f5ca23; stroke:none;" d="M333 186L334 187L333 186M573 186L574 187L573 186z"/>
<path style="fill:#616161; stroke:none;" d="M604 189L608 186L604 189z"/>
<path style="fill:#f5ca23; stroke:none;" d="M302 187L303 188L302 187M574 187L575 188L574 187M303 188L304 189L303 188M304 189L305 190L304 189M332 189L333 190L332 189z"/>
<path style="fill:#616161; stroke:none;" d="M602.667 189.333L603.333 189.667L602.667 189.333z"/>
<path style="fill:#f5ca23; stroke:none;" d="M306 190L307 191L306 190M331 190L332 191L331 190z"/>
<path style="fill:#ec0b14; stroke:none;" d="M341.275 191.028C337.532 193.348 330.167 210.621 335.448 213.397C339.306 215.424 346.729 214 351 214L387 214L518 214L558 214C561.727 214 569.308 215.425 572.397 212.972C578.734 207.94 568.615 190.31 561.996 190.019C508.563 187.675 454.492 190 401 190L358 190C353.349 190 345.368 188.49 341.275 191.028z"/>
<path style="fill:#f5ca23; stroke:none;" d="M600 190L599 192L600 190z"/>
<path style="fill:#616161; stroke:none;" d="M601 190L600 192L602 192L601 190z"/>
<path style="fill:#f5ca23; stroke:none;" d="M307 191L308 192L307 191M576 191L577 192L576 191M308 192L309 193L308 192z"/>
<path style="fill:#616161; stroke:none;" d="M598.667 192.333L599.333 192.667L598.667 192.333z"/>
<path style="fill:#f5ca23; stroke:none;" d="M310 193L311 194L310 193M330 193L331 194L330 193M577 193L578 194L577 193M596 193L597 194L596 193z"/>
<path style="fill:#616161; stroke:none;" d="M597 193L598 194L597 193M591 197L591 198L597 195L591 197z"/>
<path style="fill:#f5ca23; stroke:none;" d="M312 195L313 196L312 195M329 195L330 196L329 195M593 195L594 196L593 195z"/>
<path style="fill:#616161; stroke:none;" d="M313 196L314 197L313 196z"/>
<path style="fill:#f5ca23; stroke:none;" d="M578 196L579 197L578 196M592 196L593 197L592 196z"/>
<path style="fill:#616161; stroke:none;" d="M314 197L317 199L314 197z"/>
<path style="fill:#f5ca23; stroke:none;" d="M328 197L329 198L328 197z"/>
<path style="fill:#616161; stroke:none;" d="M578 197L579 202L580 202L578 197z"/>
<path style="fill:#f5ca23; stroke:none;" d="M579 198L580 199L579 198M589 198L588 200L589 198z"/>
<path style="fill:#616161; stroke:none;" d="M590 198L589 200L591 200L590 198M317 199L324 204L324 203L317 199z"/>
<path style="fill:#f5ca23; stroke:none;" d="M318 199L319 200L318 199M327 200L326 204L327 204L327 200z"/>
<path style="fill:#616161; stroke:none;" d="M587 200L588 201L587 200z"/>
<path style="fill:#f5ca23; stroke:none;" d="M321 201L322 202L321 201M585 201L584 203L585 201z"/>
<path style="fill:#616161; stroke:none;" d="M586 201L587 202L586 201z"/>
<path style="fill:#f5ca23; stroke:none;" d="M322 202L323 203L322 202M580 202L583 204L583 203L580 202z"/>
<path style="fill:#616161; stroke:none;" d="M585 202L586 203L585 202M327 203L324 205C326.235 205.545 328.017 205.666 327 203M580 203L583 205L583 204L580 203M583 203L584 204L583 203M275.059 219.028C267.701 223.057 272.303 230.536 279 230.956C298.832 232.199 319.125 231 339 231L552 231L615 231C620.952 231 633.516 233.372 638.107 228.852C646.891 220.202 629.799 218 625 218L560 218L354 218L298 218C291.656 218 280.736 215.918 275.059 219.028z"/>
<path style="fill:#f5ca23; stroke:none;" d="M327 219.706C312.671 220.067 298.338 219.999 284 220C279.94 220 271.084 219.154 272.377 225.871C273.487 231.642 283.857 230 288 230L339 230L556 230L617 230C622.21 230 634.919 232.305 637.928 226.775C641.934 219.415 627.732 219.174 623.83 219.519C602.932 221.37 580.516 220.726 559.714 219.155C531.609 217.032 503.087 220 475 220C425.715 220 376.274 218.464 327 219.706z"/>
<path style="fill:#616161; stroke:none;" d="M333 235C334.073 247.309 341.918 268.484 353 275C346.33 264.192 333.074 248.632 336 235L333 235z"/>
<path style="fill:#f5ca23; stroke:none;" d="M336 235L336 236L572 236L550 235L502 235L336 235z"/>
<path style="fill:#616161; stroke:none;" d="M572 235L572 236L571 247L572 247L575 235L572 235z"/>
<path style="fill:#f7f7f7; stroke:none;" d="M335 236C336.119 257.841 354.972 280.396 372 292.41C413.908 321.976 480.502 322.533 525 298.396C546.323 286.83 571.668 261.949 573 236L335 236z"/>
<path style="fill:#f5ca23; stroke:none;" d="M573.333 236.667L573.667 237.333L573.333 236.667M397 240L397 241L400 241L397 240z"/>
<path style="fill:#616161; stroke:none;" d="M395 241L395 242L414 242L395 241z"/>
<path style="fill:#f5ca23; stroke:none;" d="M410.667 240.333L411.333 240.667L410.667 240.333M498 240L498 241L507 241L498 240M335 241L336 242L335 241M394 241L395 242L394 241z"/>
<path style="fill:#020101; stroke:none;" d="M400 241.428C395.469 242.084 391.064 243.222 387.004 245.399C356.52 261.743 386.118 294.988 412 290.674C416.439 289.934 421.135 288.193 425 285.906C454.972 268.17 425.828 237.69 400 241.428z"/>
<path style="fill:#f5ca23; stroke:none;" d="M414 241L415 242L414 241M493.667 241.333L494.333 241.667L493.667 241.333z"/>
<path style="fill:#616161; stroke:none;" d="M495 241L495 242L510 242L495 241z"/>
<path style="fill:#f5ca23; stroke:none;" d="M510 241L511 242L510 241M572 241L573 242L572 241M390 242L391 243L390 242z"/>
<path style="fill:#616161; stroke:none;" d="M385 245L385 246L394 243L385 245M416 242L416 243L422 245L422 244L416 242z"/>
<path style="fill:#f5ca23; stroke:none;" d="M418 242L419 243L418 242M489 242L490 243L489 242z"/>
<path style="fill:#616161; stroke:none;" d="M485 244L485 245L492 243L485 244z"/>
<path style="fill:#020101; stroke:none;" d="M492 242.609C475.865 246.69 462.895 263.87 474.85 279.282C482.474 289.11 499.146 293.235 511 290.24C526.669 286.281 542.029 268.623 529.606 253.015C521.356 242.648 504.464 239.456 492 242.609z"/>
<path style="fill:#616161; stroke:none;" d="M512 242L512 243L520 245L520 244L512 242z"/>
<path style="fill:#f5ca23; stroke:none;" d="M515 242L516 243L515 242M336 243L337 244L336 243M421 243L422 244L421 243M485 243L486 244L485 243M518 243L519 244L518 243M571 243L572 244L571 243M386 244L387 245L386 244M422 244L423 245L422 244M484 244L485 245L484 244z"/>
<path style="fill:#616161; stroke:none;" d="M423 245L424 246L423 245z"/>
<path style="fill:#f5ca23; stroke:none;" d="M424 245L425 246L424 245z"/>
<path style="fill:#616161; stroke:none;" d="M478 249L484 246L478 249M520.667 245.333L521.333 245.667L520.667 245.333z"/>
<path style="fill:#f5ca23; stroke:none;" d="M383 246L384 247L383 246z"/>
<path style="fill:#616161; stroke:none;" d="M384 246L385 247L384 246M425 246L435 255L425 246z"/>
<path style="fill:#f5ca23; stroke:none;" d="M426 246L427 247L426 246z"/>
<path style="fill:#616161; stroke:none;" d="M522 246L522 247C538.248 259.388 533.992 270.373 524 285C539.676 276.609 538.046 252.841 522 246z"/>
<path style="fill:#f5ca23; stroke:none;" d="M570 246L569 249L570 246M337 247L338 248L337 247z"/>
<path style="fill:#616161; stroke:none;" d="M377 253L384 248L377 253z"/>
<path style="fill:#f5ca23; stroke:none;" d="M525 247L526 248L525 247M338 248L339 249L338 248M380 248L381 249L380 248M429 248L430 249L429 248M526 248L527 249L526 248z"/>
<path style="fill:#616161; stroke:none;" d="M570 248L569 252L570 252L570 248z"/>
<path style="fill:#f5ca23; stroke:none;" d="M379 249L380 250L379 249M476 249L475 251L476 249z"/>
<path style="fill:#616161; stroke:none;" d="M477 249L478 250L477 249z"/>
<path style="fill:#f5ca23; stroke:none;" d="M378 250L379 251L378 250z"/>
<path style="fill:#616161; stroke:none;" d="M476 250L477 251L476 250M475 251L476 252L475 251z"/>
<path style="fill:#f5ca23; stroke:none;" d="M529 251L530 252L529 251M339 252L340 253L339 252M433 252L434 253L433 252M473 252L474 253L473 252z"/>
<path style="fill:#616161; stroke:none;" d="M474 252L475 253L474 252M568 252L549 281C555.998 277.548 570.146 260.057 568 252z"/>
<path style="fill:#f5ca23; stroke:none;" d="M340 253L341 254L340 253M376 253L375 255L376 253z"/>
<path style="fill:#616161; stroke:none;" d="M473 253C468.602 262.026 468.286 268.6 472 278L473 278L470.471 265L473 253z"/>
<path style="fill:#f5ca23; stroke:none;" d="M531 253L532 254L531 253M567 253L568 254L567 253z"/>
<path style="fill:#616161; stroke:none;" d="M376 254L375 257L376 254z"/>
<path style="fill:#f5ca23; stroke:none;" d="M472 254L473 255L472 254z"/>
<path style="fill:#616161; stroke:none;" d="M435 255C439.05 269.198 436.827 277.233 424 286L424 287C435.933 282.377 445.085 265.837 435 255z"/>
<path style="fill:#f5ca23; stroke:none;" d="M436 255L437 256L436 255M471 255L472 256L471 255M341 256L342 257L341 256M374 256L373 259L374 256M533 257L534 258L533 257M565 257L566 258L565 257M342 258L343 259L342 258z"/>
<path style="fill:#616161; stroke:none;" d="M374 258L374 272L375 272L374 258z"/>
<path style="fill:#f5ca23; stroke:none;" d="M437 258L438 259L437 258M470 258L471 259L470 258M534 258L535 259L534 258M438 259L439 260L438 259M469 259L470 260L469 259M563 261L564 262L563 261M344 262L345 263L344 262M345 263L346 264L345 263M439 263L439 269L440 269L439 263M561 264L562 265L561 264M346 265L347 266L346 265M347 266L348 267L347 266M559 267L560 268L559 267M558 268L559 269L558 268M349 269L350 270L349 269M557 270L558 271L557 270M350 271L351 272L350 271M373 271L374 272L373 271M469.333 271.667L469.667 272.333L469.333 271.667M556 271L557 272L556 271M351 272L352 273L351 272M374.333 272.667L374.667 273.333L374.333 272.667M534 272L535 273L534 272z"/>
<path style="fill:#616161; stroke:none;" d="M375 273L376 277L377 277L375 273z"/>
<path style="fill:#f5ca23; stroke:none;" d="M438 273L439 274L438 273M470 273L471 274L470 273M533 273L534 274L533 273M437 274L438 275L437 274M353 275L357 279L353 275M375 275L376 276L375 275z"/>
<path style="fill:#616161; stroke:none;" d="M353 276L354 277L353 276z"/>
<path style="fill:#f5ca23; stroke:none;" d="M532 276L533 277L532 276M552 276L553 277L552 276z"/>
<path style="fill:#616161; stroke:none;" d="M354 277L355 278L354 277M377 277L388 287L377 277z"/>
<path style="fill:#f5ca23; stroke:none;" d="M435 277L436 278L435 277M531 277L532 278L531 277M551 277L552 278L551 277z"/>
<path style="fill:#616161; stroke:none;" d="M355 278L355 280L357 280L355 278z"/>
<path style="fill:#f5ca23; stroke:none;" d="M377 278L378 279L377 278z"/>
<path style="fill:#616161; stroke:none;" d="M473 278L480 285L473 278z"/>
<path style="fill:#f5ca23; stroke:none;" d="M550 278L551 279L550 278M434 279L435 280L434 279z"/>
<path style="fill:#616161; stroke:none;" d="M357 280L359 282L357 280z"/>
<path style="fill:#f5ca23; stroke:none;" d="M358 280L359 281L358 280M379 280L380 281L379 280M433 280L434 281L433 280M474 280L475 281L474 280M529 280L530 281L529 280M432 281L433 282L432 281M547 281L548 282L547 281z"/>
<path style="fill:#616161; stroke:none;" d="M548 281L549 282L548 281M359 282L361 284L359 282z"/>
<path style="fill:#f5ca23; stroke:none;" d="M360 282L361 283L360 282M431 282L432 283L431 282z"/>
<path style="fill:#616161; stroke:none;" d="M547 282L546 284L548 284L547 282z"/>
<path style="fill:#f5ca23; stroke:none;" d="M430 283L431 284L430 283z"/>
<path style="fill:#616161; stroke:none;" d="M361 284L368 290L361 284z"/>
<path style="fill:#f5ca23; stroke:none;" d="M362 284L363 285L362 284M383 284L384 285L383 284M478 284L479 285L478 284M525 284L526 285L525 284M544 284L542 287L544 284z"/>
<path style="fill:#616161; stroke:none;" d="M545 284L544 286L546 286L545 284z"/>
<path style="fill:#f5ca23; stroke:none;" d="M363 285L364 286L363 285M384 285L385 286L384 285M427 285L428 286L427 285z"/>
<path style="fill:#616161; stroke:none;" d="M480 285L480 286L486 288L486 287L480 285M519 287L519 288L524 286L519 287z"/>
<path style="fill:#f5ca23; stroke:none;" d="M364 286L365 287L364 286M481 286L482 287L481 286z"/>
<path style="fill:#616161; stroke:none;" d="M543 286L544 287L543 286M388.667 287.333L389.333 287.667L388.667 287.333M422.667 287.333L423.333 287.667L422.667 287.333z"/>
<path style="fill:#f5ca23; stroke:none;" d="M483 287L484 288L483 287M521 287L522 288L521 287z"/>
<path style="fill:#616161; stroke:none;" d="M540 289L543 287L540 289z"/>
<path style="fill:#f5ca23; stroke:none;" d="M390 288L392 290L390 288z"/>
<path style="fill:#616161; stroke:none;" d="M391 288L391 289L398 291L398 290L391 288M413 290L413 291L421 289L413 290z"/>
<path style="fill:#f5ca23; stroke:none;" d="M421 288L422 289L421 288M486 288L487 289L486 288z"/>
<path style="fill:#616161; stroke:none;" d="M487 288L487 289L496 291L487 288M510 290L510 291L518 289L510 290z"/>
<path style="fill:#f5ca23; stroke:none;" d="M518 288L519 289L518 288M420 289L421 290L420 289M517 289L518 290L517 289M538 289L537 291L538 289z"/>
<path style="fill:#616161; stroke:none;" d="M539 289L538 291L540 291L539 289M368 290L375 295L375 294L368 290z"/>
<path style="fill:#f5ca23; stroke:none;" d="M369 290L370 291L369 290M394 290L395 291L394 290M417 290L418 291L417 290M451 290L451 291L457 291L451 290M491 290L492 291L491 290M370 291L371 292L370 291M399 291L400 292L399 291z"/>
<path style="fill:#616161; stroke:none;" d="M400 291L400 292L411 292L400 291z"/>
<path style="fill:#f5ca23; stroke:none;" d="M411.667 291.333L412.333 291.667L411.667 291.333M446 291L447 292L446 291z"/>
<path style="fill:#616161; stroke:none;" d="M442 297L443 297L450 292C446.055 290.952 443.216 293.32 442 297z"/>
<path style="fill:#020101; stroke:none;" d="M450.001 291.638C434.948 295.988 448.695 307.622 458.996 304.347C472.628 300.013 459.527 288.885 450.001 291.638z"/>
<path style="fill:#616161; stroke:none;" d="M458 291L458 292C465.565 294.597 466.021 300.257 459 304L459 305C468.806 301.84 468.01 292.942 458 291z"/>
<path style="fill:#f5ca23; stroke:none;" d="M461 291L462 292L461 291M500 291L500 292L508 292L500 291z"/>
<path style="fill:#616161; stroke:none;" d="M534 294L538 292L534 294z"/>
<path style="fill:#f5ca23; stroke:none;" d="M372 292L373 293L372 292M444 292L445 293L444 292M463 292L464 293L463 292M534 292L535 293L534 292M373 293L374 294L373 293M443 293L444 294L443 293M464 293L465 294L464 293M533 293L534 294L533 293M531 294L532 295L531 294z"/>
<path style="fill:#616161; stroke:none;" d="M532 294L533 295L532 294M375 295L379 298L379 297L375 295z"/>
<path style="fill:#f5ca23; stroke:none;" d="M376 295L377 296L376 295M529 295L528 297L529 295z"/>
<path style="fill:#616161; stroke:none;" d="M529 297L532 295L529 297z"/>
<path style="fill:#f5ca23; stroke:none;" d="M378 296L379 297L378 296M441 296L441 300L442 300L441 296M379 297L380 298L379 297M467.333 297.667L467.667 298.333L467.333 297.667z"/>
<path style="fill:#616161; stroke:none;" d="M527.667 297.333L528.333 297.667L527.667 297.333M380 298L384 301L380 298z"/>
<path style="fill:#f5ca23; stroke:none;" d="M524 298L525 299L524 298z"/>
<path style="fill:#616161; stroke:none;" d="M522 300L522 301L527 299L522 300z"/>
<path style="fill:#f5ca23; stroke:none;" d="M522 299L523 300L522 299M384.667 300.333L385.333 300.667L384.667 300.333z"/>
<path style="fill:#616161; stroke:none;" d="M442 300L449 305L449 304L442 300z"/>
<path style="fill:#f5ca23; stroke:none;" d="M466 300L467 301L466 300M521 300L522 301L521 300z"/>
<path style="fill:#616161; stroke:none;" d="M385.667 301.333L386.333 301.667L385.667 301.333z"/>
<path style="fill:#f5ca23; stroke:none;" d="M519 301L520 302L519 301z"/>
<path style="fill:#616161; stroke:none;" d="M520 301L521 302L520 301M387 302L387 303L393 305L393 304L387 302z"/>
<path style="fill:#f5ca23; stroke:none;" d="M443 302L444 303L443 302M464 302L465 303L464 302M516 302L517 303L516 302z"/>
<path style="fill:#616161; stroke:none;" d="M513 304L513 305L519 303L513 304z"/>
<path style="fill:#f5ca23; stroke:none;" d="M391 303L392 304L391 303M444 303L445 304L444 303M463 303L464 304L463 303M514 303L515 304L514 303M393 304L394 305L393 304M446 304L447 305L446 304M461 304L462 305L461 304M512 304L513 305L512 304z"/>
<path style="fill:#616161; stroke:none;" d="M394 305L394 306L401 308L401 307L394 305z"/>
<path style="fill:#f5ca23; stroke:none;" d="M396 305L397 306L396 305M450 305L450 306L453 306L450 305z"/>
<path style="fill:#616161; stroke:none;" d="M453 305L453 306L456 306L453 305z"/>
<path style="fill:#f5ca23; stroke:none;" d="M456.667 305.333L457.333 305.667L456.667 305.333M509 305L510 306L509 305z"/>
<path style="fill:#616161; stroke:none;" d="M510.667 305.333L511.333 305.667L510.667 305.333z"/>
<path style="fill:#f5ca23; stroke:none;" d="M506 306L507 307L506 306z"/>
<path style="fill:#616161; stroke:none;" d="M505 307L505 308L510 307L505 307z"/>
<path style="fill:#f5ca23; stroke:none;" d="M401 307L402 308L401 307M504 307L505 308L504 307z"/>
<path style="fill:#616161; stroke:none;" d="M402 308L402 309L412 311L412 310L402 308z"/>
<path style="fill:#f5ca23; stroke:none;" d="M405 308L406 309L405 308z"/>
<path style="fill:#616161; stroke:none;" d="M501 308L501 309L504 309L501 308M386 326L386 325C381.754 318.627 389.739 311.68 396 312C387.814 306.045 378.491 321.742 386 326z"/>
<path style="fill:#f5ca23; stroke:none;" d="M409.667 309.333L410.333 309.667L409.667 309.333M496 309L497 310L496 309z"/>
<path style="fill:#616161; stroke:none;" d="M490 311L490 312L501 310L490 311z"/>
<path style="fill:#f5ca23; stroke:none;" d="M412.667 310.333L413.333 310.667L412.667 310.333M492.667 310.333L493.333 310.667L492.667 310.333z"/>
<path style="fill:#616161; stroke:none;" d="M511 311L511 312C517.757 313.1 519.074 320.637 522 326L517 328L517 329L523 327C521.535 320.833 518.623 310.346 511 311z"/>
<path style="fill:#f7f7f7; stroke:none;" d="M411 334C411.357 329.91 415.152 322.216 412.883 318.514C410.985 315.418 393.459 310.569 390.264 312.106C384.378 314.938 383.098 323.68 389.019 326.56C392.242 328.128 395.645 329.292 399 330.529C402.997 332.002 406.813 333.185 411 334z"/>
<path style="fill:#616161; stroke:none;" d="M413 311L413 312L416 312L413 311z"/>
<path style="fill:#f5ca23; stroke:none;" d="M416 311L417 312L416 311M489 311L490 312L489 311z"/>
<path style="fill:#616161; stroke:none;" d="M523 311L528 324L529 324L526 313L544 326C539.051 319.921 530.589 313.279 523 311M316 358L362.985 324.91L381 312C373.594 313.474 367.043 319.861 360.985 324.208C346.852 334.35 327.07 344.595 316 358z"/>
<path style="fill:#f5ca23; stroke:none;" d="M396 312L397 313L396 312z"/>
<path style="fill:#616161; stroke:none;" d="M397 312L397 313L410 316L410 315L397 312M418 312L418 313L436 315L418 312z"/>
<path style="fill:#f5ca23; stroke:none;" d="M422.667 312.333L423.333 312.667L422.667 312.333M482.667 312.333L483.333 312.667L482.667 312.333z"/>
<path style="fill:#616161; stroke:none;" d="M484 312L484 313L488 313L484 312M497 315L497 316L510 313L497 315z"/>
<path style="fill:#f5ca23; stroke:none;" d="M510 312L511 313L510 312z"/>
<path style="fill:#f7f7f7; stroke:none;" d="M490 318L493 335L521 327C518.099 305.893 504.578 315.855 490 318z"/>
<path style="fill:#f5ca23; stroke:none;" d="M515 312L516 313L515 312M524 312L525 313L524 312M398.667 313.333L399.333 313.667L398.667 313.333M430 313L430 314L434 314L430 313M472 313L472 314L475 314L472 313z"/>
<path style="fill:#616161; stroke:none;" d="M469 314L469 315L484 314L469 314z"/>
<path style="fill:#f5ca23; stroke:none;" d="M507 313L508 314L507 313M526 313L528 315L526 313M374 316L374 317L379 316L379 315L374 316M401 314L402 315L401 314M436 314L436 315L443 315L436 314M464 314L464 315L469 315L464 314M504 314L505 315L504 314M516 314L517 315L516 314z"/>
<path style="fill:#f7f7f7; stroke:none;" d="M526 314L534.625 343L536.603 357.381L566 381C546.722 390.856 565.984 411.261 581 410.871C589.104 410.661 598.269 406.76 601.633 398.999C602.956 395.946 601.55 388.935 604.407 387.117C609.006 384.192 617.474 386.456 622.999 383.431C643.669 372.116 624.676 350.338 607 352.443C601.081 353.148 592.161 359.862 587 357.172C565.064 345.737 548.17 325.029 526 314M377 315C356.617 327.531 338.757 346.524 317.424 357.225C313.19 359.349 309.77 355.344 306 353.84C300.228 351.536 292.975 351.309 287 352.927C274.121 356.417 266.857 372.114 279.044 381.362C286.401 386.944 294.668 385.016 303 387C295.403 408.009 325.805 415.792 339.557 405.532C344.862 401.575 347.613 394.395 345.157 388.004C344.092 385.233 339.299 381.419 340.907 378.285C345.511 369.311 360.885 365.004 367.682 357.536C373.421 351.231 371.32 335.245 373.721 327C374.856 323.104 377.677 319.043 377 315z"/>
<path style="fill:#f5ca23; stroke:none;" d="M387 315L388 316L387 315M405 315L406 316L405 315z"/>
<path style="fill:#616161; stroke:none;" d="M443 315L443 316L462 316L443 315z"/>
<path style="fill:#f5ca23; stroke:none;" d="M500 315L501 316L500 315z"/>
<path style="fill:#616161; stroke:none;" d="M378 316L377 319L378 316z"/>
<path style="fill:#f5ca23; stroke:none;" d="M410 316L411 317L410 316z"/>
<path style="fill:#616161; stroke:none;" d="M411 316L411 317L416 319L411 316M488 321L489 321L489 318L495 317C491.356 315.935 489.129 317.514 488 321z"/>
<path style="fill:#f5ca23; stroke:none;" d="M495.667 316.333L496.333 316.667L495.667 316.333M526 316L527 317L526 316M530 316L531 317L530 316M413 317L414 318L413 317M493 317L494 318L493 317M531 317L532 318L531 317M414.333 318.667L414.667 319.333L414.333 318.667z"/>
<path style="fill:#616161; stroke:none;" d="M420 323L421 323L424 319C420.954 318.312 420.451 320.242 420 323z"/>
<path style="fill:#f5ca23; stroke:none;" d="M489 318L489 322L490 322L489 318M527 318L528 319L527 318M376 319L377 320L376 319M385 319L386 320L385 319M421 319L422 320L421 319z"/>
<path style="fill:#f7f7f7; stroke:none;" d="M450 322C442.757 321.995 429.847 317.447 423.317 319.774C419.814 321.022 417.851 332.599 420.029 335.397C422.734 338.874 446.073 342.057 448.972 338.397C451.672 334.988 450 326.167 450 322z"/>
<path style="fill:#f5ca23; stroke:none;" d="M425.667 319.333L426.333 319.667L425.667 319.333z"/>
<path style="fill:#616161; stroke:none;" d="M427 319L427 320L433 320L427 319M474 319L474 320L480 320L474 319z"/>
<path style="fill:#f5ca23; stroke:none;" d="M480.667 319.333L481.333 319.667L480.667 319.333z"/>
<path style="fill:#616161; stroke:none;" d="M482 319L483 325L484 325L482 319z"/>
<path style="fill:#f5ca23; stroke:none;" d="M534 319L535 320L534 319M368 320L369 321L368 320z"/>
<path style="fill:#616161; stroke:none;" d="M376 320C372.082 333.543 373.486 350.102 365 361C374.996 355.753 371.641 342.703 373.887 333C374.852 328.831 377.44 324.151 376 320z"/>
<path style="fill:#f5ca23; stroke:none;" d="M384 320L385 321L384 320z"/>
<path style="fill:#616161; stroke:none;" d="M414 320L413 327L414 327L414 320z"/>
<path style="fill:#f5ca23; stroke:none;" d="M430 320L430 321L434 321L430 320z"/>
<path style="fill:#616161; stroke:none;" d="M434 320L434 321L452 323L451 320L434 320M465 341L465 340L457 340L457 322L472 321C468.783 319.65 460.705 318.63 457.742 321.028C454.775 323.429 454.603 337.586 457.603 339.972C459.484 341.468 462.768 340.992 465 341z"/>
<path style="fill:#f5ca23; stroke:none;" d="M472 320L472 321L476 321L472 320z"/>
<path style="fill:#f7f7f7; stroke:none;" d="M457 322L457 340L485 337L482 320L457 322z"/>
<path style="fill:#f5ca23; stroke:none;" d="M375 321L376 322L375 321M413 321L414 322L413 321M440 321L440 322L443 322L440 321M464 321L464 322L468 322L464 321M528 321L529 322L528 321M482.333 322.667L482.667 323.333L482.333 322.667z"/>
<path style="fill:#616161; stroke:none;" d="M489 322L490 330L491 330L489 322z"/>
<path style="fill:#f5ca23; stroke:none;" d="M538 322L539 323L538 322M364 323L365 324L364 323M420 323L420 326L421 326L420 323M450 323L450 326L451 326L450 323M520 323L521 324L520 323M363 324L364 325L363 324M384 324L385 325L384 324z"/>
<path style="fill:#616161; stroke:none;" d="M419 324C418.086 327.793 415.85 334.136 419 337L419 324M451 324L452 325L451 324z"/>
<path style="fill:#f5ca23; stroke:none;" d="M490 324L491 325L490 324M529 324L530 325L529 324M541 324L542 325L541 324M374 325L375 326L374 325M386 325L387 326L386 325M483 325L483 328L484 328L483 325M521 325L522 326L521 325z"/>
<path style="fill:#616161; stroke:none;" d="M529 325L530 331L531 331L529 325z"/>
<path style="fill:#f5ca23; stroke:none;" d="M542 325L543 326L542 325M360 326L361 327L360 326M373.333 326.667L373.667 327.333L373.333 326.667z"/>
<path style="fill:#616161; stroke:none;" d="M387 326L387 327L393 329L393 328L387 326z"/>
<path style="fill:#f5ca23; stroke:none;" d="M412.333 326.667L412.667 327.333L412.333 326.667z"/>
<path style="fill:#616161; stroke:none;" d="M450 326L451 336L452 336L450 326z"/>
<path style="fill:#f5ca23; stroke:none;" d="M530 326L531 327L530 326M544 326L546 328L544 326z"/>
<path style="fill:#616161; stroke:none;" d="M545 326L546 327L545 326z"/>
<path style="fill:#f5ca23; stroke:none;" d="M391 327L392 328L391 327z"/>
<path style="fill:#616161; stroke:none;" d="M484 327L486 337L478 338L478 339C485.748 338.908 488.633 333.772 484 327z"/>
<path style="fill:#f5ca23; stroke:none;" d="M518 327L519 328L518 327z"/>
<path style="fill:#616161; stroke:none;" d="M546 327L546 328L558 336L546 327z"/>
<path style="fill:#f5ca23; stroke:none;" d="M393 328L394 329L393 328z"/>
<path style="fill:#616161; stroke:none;" d="M412 328L411 334L412 334L412 328z"/>
<path style="fill:#f5ca23; stroke:none;" d="M419 328L420 329L419 328M450 328L450 338L451 338L450 328M516 328L517 329L516 328M356 329L357 330L356 329z"/>
<path style="fill:#616161; stroke:none;" d="M380 329C379.133 335.437 374.98 344.051 383 347L383 346C377.637 341.152 380.48 336.365 381 330L390 333L380 329M394 329L395 330L394 329z"/>
<path style="fill:#f5ca23; stroke:none;" d="M395 329L396 330L395 329M411 329L412 330L411 329M491.333 329.667L491.667 330.333L491.333 329.667M513 329L514 330L513 329z"/>
<path style="fill:#616161; stroke:none;" d="M514.667 329.333L515.333 329.667L514.667 329.333z"/>
<path style="fill:#f5ca23; stroke:none;" d="M548 329L549 330L548 329M381 330L382 331L381 330z"/>
<path style="fill:#f7f7f7; stroke:none;" d="M382 330C380.96 333.281 378.519 339.303 379.697 342.671C382.017 349.306 400.719 354.448 407 355L408.382 341.43L382 330z"/>
<path style="fill:#f5ca23; stroke:none;" d="M383 330L384 331L383 330z"/>
<path style="fill:#616161; stroke:none;" d="M396 330L396 331L401 332L401 331L396 330z"/>
<path style="fill:#f5ca23; stroke:none;" d="M399 330L400 331L399 330z"/>
<path style="fill:#616161; stroke:none;" d="M506 332L506 333L513 331L506 332z"/>
<path style="fill:#f5ca23; stroke:none;" d="M531.333 330.667L531.667 331.333L531.333 330.667M549 330L550 331L549 330M353 331L354 332L353 331M385 331L386 332L385 331M401 331L402 332L401 331z"/>
<path style="fill:#616161; stroke:none;" d="M491 331L493 336L491 331z"/>
<path style="fill:#f5ca23; stroke:none;" d="M507 331L508 332L507 331z"/>
<path style="fill:#616161; stroke:none;" d="M520 332L520 333L524 332L526 347C529.786 341.977 527.198 331.377 520 332z"/>
<path style="fill:#f5ca23; stroke:none;" d="M352 332L353 333L352 332M387 332L388 333L387 332z"/>
<path style="fill:#616161; stroke:none;" d="M402.667 332.333L403.333 332.667L402.667 332.333z"/>
<path style="fill:#f5ca23; stroke:none;" d="M484 332L485 333L484 332M492.333 332.667L492.667 333.333L492.333 332.667M505 332L506 333L505 332M522.667 332.333L523.333 332.667L522.667 332.333z"/>
<path style="fill:#616161; stroke:none;" d="M531 332L532 340L533 340L531 332z"/>
<path style="fill:#f5ca23; stroke:none;" d="M552 332L553 333L552 332M372 333L373 334L372 333M390 333L391 334L390 333z"/>
<path style="fill:#616161; stroke:none;" d="M391 333L391 334L398 336L398 335L391 333M405 333L405 334L411 335L411 334L405 333z"/>
<path style="fill:#f5ca23; stroke:none;" d="M408 333L409 334L408 333M500 333L501 334L500 333z"/>
<path style="fill:#616161; stroke:none;" d="M501 333L501 334L504 334L501 333M517.667 333.333L518.333 333.667L517.667 333.333z"/>
<path style="fill:#f5ca23; stroke:none;" d="M519 333L520 334L519 333z"/>
<path style="fill:#f7f7f7; stroke:none;" d="M497 357C501.412 356.241 505.798 354.652 510 353.089C513.009 351.969 516.111 350.899 519 349.497C523.522 347.302 531.216 336.95 522.567 333.708C518.894 332.331 498.414 338.455 496.028 341.589C493.022 345.537 496.57 352.685 497 357z"/>
<path style="fill:#f5ca23; stroke:none;" d="M532 333L533 334L532 333M553 333L554 334L553 333M349 334L350 335L349 334M380 334L380 337L381 337L380 334M392 334L393 335L392 334M418.333 334.667L418.667 335.333L418.333 334.667M496 334L497 335L496 334z"/>
<path style="fill:#616161; stroke:none;" d="M495 335L495 336L501 335L495 335M511 335L511 336L516 335L511 335z"/>
<path style="fill:#f5ca23; stroke:none;" d="M516.667 334.333L517.333 334.667L516.667 334.333M524 334L525 335L524 334M555 334L556 335L555 334M394 335L395 336L394 335M493.667 335.333L494.333 335.667L493.667 335.333M514 335L515 336L514 335M556 335L557 336L556 335M346 336L347 337L346 336M371 336L372 337L371 336z"/>
<path style="fill:#616161; stroke:none;" d="M398 336L398 337L401 337L398 336z"/>
<path style="fill:#f5ca23; stroke:none;" d="M419 336L420 337L419 336M485 336L486 337L485 336z"/>
<path style="fill:#616161; stroke:none;" d="M508.667 336.333L509.333 336.667L508.667 336.333z"/>
<path style="fill:#f5ca23; stroke:none;" d="M510 336L511 337L510 336z"/>
<path style="fill:#616161; stroke:none;" d="M558 336L558 337L573 347L558 336z"/>
<path style="fill:#f5ca23; stroke:none;" d="M401 337L402 338L401 337z"/>
<path style="fill:#616161; stroke:none;" d="M402 337L402 338C409.468 340.369 408.539 344.161 408 351L409 351L411 340L402 337M420 337L420 338L430 339L420 337z"/>
<path style="fill:#f5ca23; stroke:none;" d="M426 337L427 338L426 337M481 337L482 338L481 337z"/>
<path style="fill:#616161; stroke:none;" d="M497 339L497 340L506 338L497 339z"/>
<path style="fill:#f5ca23; stroke:none;" d="M506 337L507 338L506 337M559 337L560 338L559 337M379.333 338.667L379.667 339.333L379.333 338.667M403 338L404 339L403 338M430 338L430 339L434 339L430 338z"/>
<path style="fill:#616161; stroke:none;" d="M450 338L443 340L443 341C445.572 340.998 451.458 341.869 450 338z"/>
<path style="fill:#f5ca23; stroke:none;" d="M474 338L474 339L478 339L474 338M504 338L505 339L504 338M525.333 338.667L525.667 339.333L525.333 338.667M560 338L561 339L560 338M342 339L343 340L342 339M407 339L408 340L407 339z"/>
<path style="fill:#616161; stroke:none;" d="M431 339L431 340L437 340L431 339z"/>
<path style="fill:#f5ca23; stroke:none;" d="M437 339L437 340L440 340L437 339M449 339L450 340L449 339M468 339L468 340L471 340L468 339z"/>
<path style="fill:#616161; stroke:none;" d="M471 339L471 340L477 340L471 339z"/>
<path style="fill:#f5ca23; stroke:none;" d="M500 339L501 340L500 339M533 339L534 344L535 344L533 339z"/>
<path style="fill:#616161; stroke:none;" d="M493 340C493.122 345.926 492.877 356.764 500 358L500 357C494.649 353.738 494.361 345.723 495 340L493 340z"/>
<path style="fill:#f5ca23; stroke:none;" d="M495 340L496 341L495 340M563 340L564 341L563 340M339 341L340 342L339 341z"/>
<path style="fill:#616161; stroke:none;" d="M419 360L419 359L414 358L417 342L426 343C412.67 335.913 408.409 358.781 419 360M480 342L480 343L487 343L489 360C493.687 352.738 488.712 340.998 480 342z"/>
<path style="fill:#f5ca23; stroke:none;" d="M494 341L494 344L495 344L494 341z"/>
<path style="fill:#616161; stroke:none;" d="M533 341C533.021 348.425 532.324 357.641 540 361L533 341z"/>
<path style="fill:#f5ca23; stroke:none;" d="M564 341L565 342L564 341M338 342L339 343L338 342z"/>
<path style="fill:#f7f7f7; stroke:none;" d="M417 342C416.566 346.355 413.495 352.327 415.603 356.57C419.17 363.75 443.083 362.981 450 363L450 346L417 342z"/>
<path style="fill:#f5ca23; stroke:none;" d="M419 342L420 343L419 342M526.333 342.667L526.667 343.333L526.333 342.667M426 343L427 344L426 343z"/>
<path style="fill:#616161; stroke:none;" d="M427 343L427 344L432 344L427 343M472 343L472 344L478 344L472 343z"/>
<path style="fill:#f5ca23; stroke:none;" d="M478.667 343.333L479.333 343.667L478.667 343.333z"/>
<path style="fill:#f7f7f7; stroke:none;" d="M457 346L457 363C462.999 362.996 485.597 363.987 488.382 357.697C490.107 353.801 487.09 347.247 487 343L457 346z"/>
<path style="fill:#f5ca23; stroke:none;" d="M567 343L568 344L567 343M335 344L336 345L335 344M380 344L381 345L380 344M416 344L416 347L417 347L416 344M434 344L434 345L437 345L434 344z"/>
<path style="fill:#616161; stroke:none;" d="M437 344L437 345C448.996 345 450.911 348.246 451 360L452 360L451 344L437 344M456 364L457 364C457 354.163 454.644 345.044 467 345C453.375 339.283 456 355.622 456 364z"/>
<path style="fill:#f5ca23; stroke:none;" d="M467 344L467 345L471 345L467 344M334 345L335 346L334 345M440 345L440 346L449 346L440 345M458 345L458 346L464 346L458 345M526 345L527 346L526 345M570 345L571 346L570 345M383 346L384 347L383 346M408 346L409 347L408 346M525 346L526 347L525 346M571 346L572 347L571 346M331 347L332 348L331 347M370 347L370 355L371 355L370 347z"/>
<path style="fill:#616161; stroke:none;" d="M384 347L384 348L389 350L389 349L384 347z"/>
<path style="fill:#f5ca23; stroke:none;" d="M415.333 347.667L415.667 348.333L415.333 347.667M450 347L450 351L451 351L450 347M487 347L487 350L488 350L487 347M522 347L523 348L522 347z"/>
<path style="fill:#616161; stroke:none;" d="M520 349L520 350L525 348L520 349M573 347L573 348L580 352L573 347z"/>
<path style="fill:#f5ca23; stroke:none;" d="M388 348L389 349L388 348M520 348L521 349L520 348M574 348L575 349L574 348M328 349L329 350L328 349M389 349L390 350L389 349M407 349L407 352L408 352L407 349M519 349L520 350L519 349z"/>
<path style="fill:#616161; stroke:none;" d="M377 350C377 369.481 384.609 390.792 404 399C391.858 384.682 373.944 372 379 350L377 350M390 350L390 351L399 354L399 353L390 350z"/>
<path style="fill:#f5ca23; stroke:none;" d="M392 350L393 351L392 350M495 350L496 351L495 350z"/>
<path style="fill:#616161; stroke:none;" d="M517.667 350.333L518.333 350.667L517.667 350.333z"/>
<path style="fill:#f5ca23; stroke:none;" d="M577 350L578 351L577 350z"/>
<path style="fill:#616161; stroke:none;" d="M279 355L279 356L291 352L279 355z"/>
<path style="fill:#f5ca23; stroke:none;" d="M291 351L291 352L299 352L291 351z"/>
<path style="fill:#616161; stroke:none;" d="M299 351L299 352L308 354L299 351z"/>
<path style="fill:#f5ca23; stroke:none;" d="M325 351L326 352L325 351M378 351L378 358L379 358L380 351L378 351z"/>
<path style="fill:#616161; stroke:none;" d="M380 351L380 352L392 357L392 356L380 351z"/>
<path style="fill:#f5ca23; stroke:none;" d="M395 351L396 352L395 351M488.333 351.667L488.667 352.333L488.333 351.667M513 351L514 352L513 351z"/>
<path style="fill:#616161; stroke:none;" d="M510 353L510 354L517 352L510 353z"/>
<path style="fill:#f5ca23; stroke:none;" d="M578 351L579 352L578 351z"/>
<path style="fill:#616161; stroke:none;" d="M598 353L598 354L621 354C614.874 348.985 604.986 350.785 598 353z"/>
<path style="fill:#f5ca23; stroke:none;" d="M288 352L289 353L288 352M301 352L302 353L301 352M324 352L325 353L324 352z"/>
<path style="fill:#f7f7f7; stroke:none;" d="M379 352C379 395.953 418.836 408 456 408C490.33 408 527 393.814 527 354C491.784 364.067 460.216 373.682 423 366.69C407.491 363.776 393.909 356.295 379 352z"/>
<path style="fill:#f5ca23; stroke:none;" d="M397 352L398 353L397 352z"/>
<path style="fill:#616161; stroke:none;" d="M407 352L400 354L400 355L408 357L407 352z"/>
<path style="fill:#f5ca23; stroke:none;" d="M450 352L450 362L451 362L450 352M496.333 352.667L496.667 353.333L496.333 352.667M511 352L512 353L511 352z"/>
<path style="fill:#616161; stroke:none;" d="M525 353L528 354C524.144 370.196 522.378 383.038 508 394C518.349 394.219 526.614 373.473 527.985 365C528.668 360.787 530.953 353.312 525 353M580 352L583 354L580 352z"/>
<path style="fill:#f5ca23; stroke:none;" d="M605.667 352.333L606.333 352.667L605.667 352.333M612 352L612 353L615 353L612 352M284 353L285 354L284 353M305 353L306 354L305 353M383 353L384 354L383 353M399 353L400 354L399 353M509 353L510 354L509 353M600 353L601 354L600 353M618 353L619 354L618 353M282 354L283 355L282 354z"/>
<path style="fill:#616161; stroke:none;" d="M308 354L308 355L312 357L308 354z"/>
<path style="fill:#f5ca23; stroke:none;" d="M321 354L322 355L321 354M385 354L386 355L385 354M402 354L403 355L402 354M505 354L506 355L505 354z"/>
<path style="fill:#616161; stroke:none;" d="M501 356L501 357L509 355L501 356M515 357L515 358L524 355L515 357z"/>
<path style="fill:#f5ca23; stroke:none;" d="M524 354L525 355L524 354M527.333 354.667L527.667 355.333L527.333 354.667z"/>
<path style="fill:#616161; stroke:none;" d="M583 354L583 355L587 357L583 354M596 354L597 355L596 354z"/>
<path style="fill:#f5ca23; stroke:none;" d="M597 354L598 355L597 354M621 354L622 355L621 354z"/>
<path style="fill:#616161; stroke:none;" d="M622 354L622 355L630 362L631 362L622 354z"/>
<path style="fill:#f5ca23; stroke:none;" d="M309 355L310 356L309 355M320 355L321 356L320 355M387 355L388 356L387 355M414 355L414 358L415 358L414 355M502 355L503 356L502 355M522 355L523 356L522 355M584 355L585 356L584 355z"/>
<path style="fill:#616161; stroke:none;" d="M593 357L596 355L593 357z"/>
<path style="fill:#f5ca23; stroke:none;" d="M623 355L624 356L623 355z"/>
<path style="fill:#616161; stroke:none;" d="M275 378C271.727 368.161 273.245 364.527 279 356C271.744 359.718 267.403 372.405 275 378z"/>
<path style="fill:#f5ca23; stroke:none;" d="M310 356L311 357L310 356M369 356L370 357L369 356M389 356L390 357L389 356M500 356L501 357L500 356M520 356L521 357L520 356M624 356L625 357L624 356z"/>
<path style="fill:#616161; stroke:none;" d="M312 357L312 358L315 359L312 357z"/>
<path style="fill:#f5ca23; stroke:none;" d="M368 357L369 358L368 357M392 357L393 358L392 357z"/>
<path style="fill:#616161; stroke:none;" d="M393.667 357.333L394.333 357.667L393.667 357.333z"/>
<path style="fill:#f5ca23; stroke:none;" d="M517 357L518 358L517 357M536 357L537 358L536 357z"/>
<path style="fill:#616161; stroke:none;" d="M587 357L587 358L591 359L591 358L587 357M592 357L593 358L592 357z"/>
<path style="fill:#f5ca23; stroke:none;" d="M313 358L314 359L313 358M315.667 358.333L316.333 358.667L315.667 358.333M366 358L367 359L366 358M395 358L396 359L395 358z"/>
<path style="fill:#616161; stroke:none;" d="M396 358L396 359L403 361L396 358z"/>
<path style="fill:#f5ca23; stroke:none;" d="M416 358L417 359L416 358z"/>
<path style="fill:#616161; stroke:none;" d="M506 360L506 361L514 359L506 360z"/>
<path style="fill:#f5ca23; stroke:none;" d="M514 358L515 359L514 358M588 358L589 359L588 358M591 358L592 359L591 358M276 359L277 360L276 359M365 359L366 360L365 359M419.667 359.333L420.333 359.667L419.667 359.333M488 359L489 360L488 359M512 359L513 360L512 359M589.667 359.333L590.333 359.667L589.667 359.333M628 359L629 360L628 359M275 360L276 361L275 360M364 360L365 361L364 360z"/>
<path style="fill:#616161; stroke:none;" d="M420.667 360.333L421.333 360.667L420.667 360.333z"/>
<path style="fill:#f5ca23; stroke:none;" d="M422.667 360.333L423.333 360.667L422.667 360.333M484 360L485 361L484 360z"/>
<path style="fill:#616161; stroke:none;" d="M485 360L485 361L488 361L485 360z"/>
<path style="fill:#f5ca23; stroke:none;" d="M274 361L275 362L274 361M362 361L360 364L362 361z"/>
<path style="fill:#616161; stroke:none;" d="M363 361L364 362L363 361z"/>
<path style="fill:#f5ca23; stroke:none;" d="M404 361L405 362L404 361z"/>
<path style="fill:#616161; stroke:none;" d="M405 361L405 362L414 364L414 363L405 361M426 361L426 362L445 364L426 361z"/>
<path style="fill:#f5ca23; stroke:none;" d="M430 361L431 362L430 361M477 361L478 362L477 361z"/>
<path style="fill:#616161; stroke:none;" d="M478 361L478 362L482 362L478 361M502.667 361.333L503.333 361.667L502.667 361.333z"/>
<path style="fill:#f5ca23; stroke:none;" d="M504 361L505 362L504 361z"/>
<path style="fill:#616161; stroke:none;" d="M540 361L544 364L540 361z"/>
<path style="fill:#f5ca23; stroke:none;" d="M629 361L630 362L629 361z"/>
<path style="fill:#616161; stroke:none;" d="M362 362L363 363L362 362z"/>
<path style="fill:#f5ca23; stroke:none;" d="M406 362L407 363L406 362M438 362L438 363L442 363L438 362z"/>
<path style="fill:#616161; stroke:none;" d="M450 362L449 364L451 364L450 362z"/>
<path style="fill:#f5ca23; stroke:none;" d="M466 362L466 363L469 363L466 362z"/>
<path style="fill:#616161; stroke:none;" d="M462 363L462 364L478 363L462 363M495 363L495 364L501 363L495 363z"/>
<path style="fill:#f5ca23; stroke:none;" d="M501.667 362.333L502.333 362.667L501.667 362.333M543 362L544 363L543 362M630 362L631 363L630 362z"/>
<path style="fill:#616161; stroke:none;" d="M361 363L362 364L361 363z"/>
<path style="fill:#f5ca23; stroke:none;" d="M409 363L410 364L409 363M445 363L445 364L449 364L445 363M457 363L457 364L462 364L457 363z"/>
<path style="fill:#616161; stroke:none;" d="M631 363L632 369L633 369L631 363z"/>
<path style="fill:#f5ca23; stroke:none;" d="M273 364L274 365L273 364M358 364L359 365L358 364z"/>
<path style="fill:#616161; stroke:none;" d="M359.667 364.333L360.333 364.667L359.667 364.333z"/>
<path style="fill:#f5ca23; stroke:none;" d="M414 364L415 365L414 364z"/>
<path style="fill:#616161; stroke:none;" d="M415 364L415 365L418 365L415 364M490 364L490 365L493 365L490 364z"/>
<path style="fill:#f5ca23; stroke:none;" d="M493 364L494 365L493 364z"/>
<path style="fill:#616161; stroke:none;" d="M544.667 364.333L545.333 364.667L544.667 364.333M349 371L349 372L359 365L349 371z"/>
<path style="fill:#f5ca23; stroke:none;" d="M379 365L380 366L379 365M418.667 365.333L419.333 365.667L418.667 365.333z"/>
<path style="fill:#616161; stroke:none;" d="M420 365L420 366L435 368L420 365M472 367L472 368L488 366L472 367z"/>
<path style="fill:#f5ca23; stroke:none;" d="M488.667 365.333L489.333 365.667L488.667 365.333M526 365L527 366L526 365z"/>
<path style="fill:#616161; stroke:none;" d="M546 365L549 368L546 365z"/>
<path style="fill:#f5ca23; stroke:none;" d="M547 365L548 366L547 365M272 366L273 367L272 366M355 366L356 367L355 366M421.667 366.333L422.333 366.667L421.667 366.333M485 366L486 367L485 366M548 366L549 367L548 366M354 367L355 368L354 367M380 367L381 368L380 367M428.667 367.333L429.333 367.667L428.667 367.333M478.667 367.333L479.333 367.667L478.667 367.333M549 367L550 368L549 367M439 368L439 369L442 369L439 368z"/>
<path style="fill:#616161; stroke:none;" d="M442 368L442 369L465 369L442 368z"/>
<path style="fill:#f5ca23; stroke:none;" d="M465 368L465 369L469 369L465 368M525.333 368.667L525.667 369.333L525.333 368.667z"/>
<path style="fill:#616161; stroke:none;" d="M550 368L553 371L550 368z"/>
<path style="fill:#f5ca23; stroke:none;" d="M551 368L552 369L551 368M351 369L352 370L351 369M451 369L451 370L456 370L451 369M632 369L633 370L632 369M350 370L351 371L350 370M553 370L554 371L553 370z"/>
<path style="fill:#616161; stroke:none;" d="M632 370L629 379C632.387 376.863 633.52 373.764 632 370z"/>
<path style="fill:#f5ca23; stroke:none;" d="M272 371L273 372L272 371M381 371L382 372L381 371M524 371L525 372L524 371z"/>
<path style="fill:#616161; stroke:none;" d="M554 371L558 374L558 373L554 371z"/>
<path style="fill:#f5ca23; stroke:none;" d="M555 371L556 372L555 371M347 372L348 373L347 372z"/>
<path style="fill:#616161; stroke:none;" d="M348 372L349 373L348 372z"/>
<path style="fill:#f5ca23; stroke:none;" d="M273.333 373.667L273.667 374.333L273.333 373.667z"/>
<path style="fill:#616161; stroke:none;" d="M345 375L348 373L345 375z"/>
<path style="fill:#f5ca23; stroke:none;" d="M382.333 373.667L382.667 374.333L382.333 373.667M631 373L632 374L631 373M523 374L524 375L523 374z"/>
<path style="fill:#616161; stroke:none;" d="M558 374L559 375L558 374z"/>
<path style="fill:#f5ca23; stroke:none;" d="M559 374L560 375L559 374M343 375L344 376L343 375z"/>
<path style="fill:#616161; stroke:none;" d="M344 375L345 376L344 375M560 375L565 381L560 375z"/>
<path style="fill:#f5ca23; stroke:none;" d="M630.333 375.667L630.667 376.333L630.333 375.667z"/>
<path style="fill:#616161; stroke:none;" d="M339 378L345 387L346 387L341 378L344 377L339 378z"/>
<path style="fill:#f5ca23; stroke:none;" d="M522 376L523 377L522 376M562 376L563 377L562 376M340 377L341 378L340 377M563 377L564 378L563 377z"/>
<path style="fill:#616161; stroke:none;" d="M275 378L279 382L275 378z"/>
<path style="fill:#f5ca23; stroke:none;" d="M384 378L385 379L384 378M521 378L522 379L521 378M385 379L386 380L385 379z"/>
<path style="fill:#616161; stroke:none;" d="M628 379L627 382L628 379z"/>
<path style="fill:#f5ca23; stroke:none;" d="M339 380L340 381L339 380M520 380L521 381L520 380M565 380L566 381L565 380M340 381L341 382L340 381z"/>
<path style="fill:#616161; stroke:none;" d="M557 397L558 397L564 381C558.07 384.039 556.006 390.647 557 397z"/>
<path style="fill:#f5ca23; stroke:none;" d="M626 381L627 382L626 381z"/>
<path style="fill:#616161; stroke:none;" d="M279 382L279 383L284 385L284 384L279 382z"/>
<path style="fill:#f5ca23; stroke:none;" d="M280 382L281 383L280 382M387 382L388 383L387 382M519 382L520 383L519 382z"/>
<path style="fill:#616161; stroke:none;" d="M625 382L626 383L625 382z"/>
<path style="fill:#f5ca23; stroke:none;" d="M282 383L283 384L282 383M342 383L343 384L342 383M518 383L519 384L518 383M622 383L621 385L622 383z"/>
<path style="fill:#616161; stroke:none;" d="M622 385L625 383L622 385z"/>
<path style="fill:#f5ca23; stroke:none;" d="M284 384L285 385L284 384M343 384L344 385L343 384M561 384L562 385L561 384z"/>
<path style="fill:#616161; stroke:none;" d="M285 385L285 386L300 387L301 388C299.533 392.966 299.429 398.748 304 402L302 386L285 385z"/>
<path style="fill:#f5ca23; stroke:none;" d="M287 385L288 386L287 385M389 385L390 386L389 385M560 385L561 386L560 385M618 385L619 386L618 385z"/>
<path style="fill:#616161; stroke:none;" d="M619.667 385.333L620.333 385.667L619.667 385.333z"/>
<path style="fill:#f5ca23; stroke:none;" d="M344 386L345 387L344 386M516 386L517 387L516 386M602 390L603 390L603 387L608 387C604.736 385.759 603.07 386.77 602 390M612.667 386.333L613.333 386.667L612.667 386.333z"/>
<path style="fill:#616161; stroke:none;" d="M603 387L600 403C605.267 399.957 604 393.311 604 388L619 387L603 387z"/>
<path style="fill:#f5ca23; stroke:none;" d="M302.333 387.667L302.667 388.333L302.333 387.667M345 387L346 388L345 387M515 387L516 388L515 387M559 387L560 388L559 387z"/>
<path style="fill:#616161; stroke:none;" d="M346 388L344 402L345 402C347.532 397.48 349.39 392.476 346 388z"/>
<path style="fill:#f5ca23; stroke:none;" d="M514 388L515 389L514 388M513 389L514 390L513 389M558 389L559 390L558 389M301 390L302 391L301 390M394 390L395 391L394 390M512 390L513 391L512 390M511 391L512 392L511 391M396 392L397 393L396 392M510 392L511 393L510 392M397 393L398 394L397 393M398 394L399 395L398 394M301 395L302 396L301 395z"/>
<path style="fill:#616161; stroke:none;" d="M507 395L508 396L507 395M505 396L502 398L502 399L505 396z"/>
<path style="fill:#f5ca23; stroke:none;" d="M558.333 396.667L558.667 397.333L558.333 396.667M302.333 397.667L302.667 398.333L302.333 397.667M403 397L404 398L403 397M502 397L503 398L502 397M602 397L603 398L602 397M345 398L346 399L345 398M404 398L405 399L404 398z"/>
<path style="fill:#616161; stroke:none;" d="M558 398L564 406L558 398z"/>
<path style="fill:#f5ca23; stroke:none;" d="M344 399L345 400L344 399z"/>
<path style="fill:#616161; stroke:none;" d="M405 399L406 400L405 399z"/>
<path style="fill:#f5ca23; stroke:none;" d="M406 399L407 400L406 399z"/>
<path style="fill:#616161; stroke:none;" d="M500.667 399.333L501.333 399.667L500.667 399.333z"/>
<path style="fill:#f5ca23; stroke:none;" d="M559 399L560 400L559 399M601 399L602 400L601 399M303 400L304 401L303 400z"/>
<path style="fill:#616161; stroke:none;" d="M407 400L407 401L413 403L413 402L407 400z"/>
<path style="fill:#f5ca23; stroke:none;" d="M409 400L410 401L409 400M497 400L498 401L497 400z"/>
<path style="fill:#616161; stroke:none;" d="M498.667 400.333L499.333 400.667L498.667 400.333z"/>
<path style="fill:#f5ca23; stroke:none;" d="M411 401L412 402L411 401M495 401L496 402L495 401z"/>
<path style="fill:#616161; stroke:none;" d="M496.667 401.333L497.333 401.667L496.667 401.333z"/>
<path style="fill:#f5ca23; stroke:none;" d="M560 401L561 402L560 401M600 401L601 402L600 401M304 402L305 403L304 402z"/>
<path style="fill:#616161; stroke:none;" d="M343 402L344 403L343 402z"/>
<path style="fill:#f5ca23; stroke:none;" d="M413 402L414 403L413 402M493 402L494 403L493 402z"/>
<path style="fill:#616161; stroke:none;" d="M494.667 402.333L495.333 402.667L494.667 402.333z"/>
<path style="fill:#f5ca23; stroke:none;" d="M561 402L562 403L561 402z"/>
<path style="fill:#616161; stroke:none;" d="M304 403L308 406L308 405L304 403M342 403L333 409L333 410C336.737 409.055 342.101 407.48 342 403M414 403L414 404L422 406L422 405L414 403z"/>
<path style="fill:#f5ca23; stroke:none;" d="M416.667 403.333L417.333 403.667L416.667 403.333M489 403L490 404L489 403z"/>
<path style="fill:#616161; stroke:none;" d="M484 405L484 406L493 404L484 405M599 403L597 406L599 403z"/>
<path style="fill:#f5ca23; stroke:none;" d="M306.667 404.333L307.333 404.667L306.667 404.333M340 404L341 405L340 404M420 404L421 405L420 404M485 404L486 405L485 404M563 404L564 405L563 404M422.667 405.333L423.333 405.667L422.667 405.333M483 405L484 406L483 405z"/>
<path style="fill:#616161; stroke:none;" d="M308 406L315 410L315 409L308 406z"/>
<path style="fill:#f5ca23; stroke:none;" d="M309 406L310 407L309 406M338 406L339 407L338 406z"/>
<path style="fill:#616161; stroke:none;" d="M424 406L424 407L428 407L424 406z"/>
<path style="fill:#f5ca23; stroke:none;" d="M428 406L429 407L428 406M478.667 406.333L479.333 406.667L478.667 406.333z"/>
<path style="fill:#616161; stroke:none;" d="M480 406L480 407L483 407L480 406M564 406L571 410L571 409L564 406z"/>
<path style="fill:#f5ca23; stroke:none;" d="M565 406L566 407L565 406M595 406L596 407L595 406z"/>
<path style="fill:#616161; stroke:none;" d="M596 406L597 407L596 406z"/>
<path style="fill:#f5ca23; stroke:none;" d="M311 407L312 408L311 407M336 407L337 408L336 407z"/>
<path style="fill:#616161; stroke:none;" d="M429 407L429 408L443 409L429 407z"/>
<path style="fill:#f5ca23; stroke:none;" d="M435 407L435 408L438 408L435 407M469 407L469 408L472 408L469 407z"/>
<path style="fill:#616161; stroke:none;" d="M464 408L464 409L478 408L464 408z"/>
<path style="fill:#f5ca23; stroke:none;" d="M567 407L568 408L567 407M593 407L594 408L593 407z"/>
<path style="fill:#616161; stroke:none;" d="M590 409L590 410L596 408L590 409z"/>
<path style="fill:#f5ca23; stroke:none;" d="M313 408L314 409L313 408M334 408L335 409L334 408M443 408L443 409L464 409L443 408M569 408L570 409L569 408M591 408L592 409L591 408M315 409L316 410L315 409M332 409L333 410L332 409z"/>
<path style="fill:#616161; stroke:none;" d="M446 409L446 410L461 410L446 409z"/>
<path style="fill:#f5ca23; stroke:none;" d="M571 409L572 410L571 409M589 409L590 410L589 409z"/>
<path style="fill:#616161; stroke:none;" d="M316 410L316 411L331 411L316 410z"/>
<path style="fill:#f5ca23; stroke:none;" d="M322 410L322 411L326 411L322 410z"/>
<path style="fill:#616161; stroke:none;" d="M572 410L572 411L589 411L572 410z"/>
<path style="fill:#f5ca23; stroke:none;" d="M576 410L577 411L576 410M584.667 410.333L585.333 410.667L584.667 410.333z"/>
</svg>
